<?xml version="1.0" encoding="UTF-8" standalone="no" ?>
<!DOCTYPE svg PUBLIC "-//W3C//DTD SVG 1.1//EN" "http://www.w3.org/Graphics/SVG/1.1/DTD/svg11.dtd">
<svg xmlns="http://www.w3.org/2000/svg" xmlns:xlink="http://www.w3.org/1999/xlink" version="1.1" width="2000" height="2000" viewBox="0 0 2000 2000" xml:space="preserve">
<desc>Created with Fabric.js 5.2.4</desc>
<defs>
</defs>
<rect x="0" y="0" width="100%" height="100%" fill="transparent"></rect>
<g transform="matrix(1 0 0 1 1000 1000)" id="353064cd-8a3c-4fcf-bb17-99786d4332cb"  >
<rect style="stroke: none; stroke-width: 1; stroke-dasharray: none; stroke-linecap: butt; stroke-dashoffset: 0; stroke-linejoin: miter; stroke-miterlimit: 4; fill: rgb(255,255,255); fill-rule: nonzero; opacity: 1; visibility: hidden;" vector-effect="non-scaling-stroke"  x="-1000" y="-1000" rx="0" ry="0" width="2000" height="2000" />
</g>
<g transform="matrix(Infinity NaN NaN Infinity 0 0)" id="479e7b7b-0a67-4e23-9b84-7239d5cdc40b"  >
</g>
<g transform="matrix(1.85 0 0 1.85 3017.15 2400.67)" style="" id="0130a764-9909-4095-970e-389a46581991"  >
		<text xml:space="preserve" font-family="Alegreya" font-size="80" font-style="normal" font-weight="700" style="stroke: none; stroke-width: 1; stroke-dasharray: none; stroke-linecap: butt; stroke-dashoffset: 0; stroke-linejoin: miter; stroke-miterlimit: 4; fill: rgb(255,255,255); fill-rule: nonzero; opacity: 1; white-space: pre;" ><tspan x="-73.32" y="25.13" >ART</tspan></text>
</g>
<g transform="matrix(1.85 0 0 2.07 3055.64 2572.72)" style="" id="57c7d8cd-2b63-4326-9a7e-6d49680563a1"  >
		<text xml:space="preserve" font-family="Lato" font-size="40" font-style="normal" font-weight="400" style="stroke: none; stroke-width: 1; stroke-dasharray: none; stroke-linecap: butt; stroke-dashoffset: 0; stroke-linejoin: miter; stroke-miterlimit: 4; fill: rgb(224,224,224); fill-rule: nonzero; opacity: 1; white-space: pre;" ><tspan x="-130.64" y="12.57" >P o s s e s s i o n</tspan></text>
</g>
<g transform="matrix(37.93 0 0 37.1 563.75 1022.22)" id="mainIconPathAttribute"  >
<path style="stroke: rgb(255,0,0); stroke-width: 0; stroke-dasharray: none; stroke-linecap: butt; stroke-dashoffset: 0; stroke-linejoin: miter; stroke-miterlimit: 4; fill: rgb(255,165,0); fill-rule: nonzero; opacity: 1;" vector-effect="non-scaling-stroke"  transform=" translate(-8.14, -7.85)" d="M 15.825 0.12 C 15.993572124813753 0.26389515512923356 16.047298355446664 0.5015930239899875 15.956999999999999 0.704 C 14.427 4.134 11.213999999999999 8.874 8.861999999999998 11.344000000000001 C 8.20275865292934 12.034974232074115 7.389709238247539 12.56056116933576 6.488999999999999 12.878000000000002 C 6.470999999999998 13.105000000000002 6.4289999999999985 13.416000000000002 6.328999999999998 13.746000000000002 C 6.127999999999998 14.405000000000003 5.661999999999998 15.225000000000001 4.620999999999998 15.486000000000002 C 3.6128313644565573 15.726067935477626 2.568019974994894 15.770874661731343 1.5429999999999975 15.618 C 1.3524000016677893 15.587889423045791 1.164480538004618 15.542748626614246 0.9809999999999977 15.483000000000002 C 0.8112508185992522 15.431344883405142 0.6530369201329609 15.347484726921936 0.5149999999999981 15.236000000000002 C 0.4239711400762394 15.1585835721992 0.35382834946512665 15.059558456042334 0.31099999999999806 14.948000000000002 C 0.2579182451809595 14.804847068928966 0.25934195612503236 14.647171081872898 0.31499999999999784 14.505000000000003 C 0.4099999999999979 14.260000000000003 0.630999999999998 14.125000000000002 0.775999999999998 14.053000000000003 C 1.1699999999999982 13.856000000000003 1.400999999999998 13.600000000000003 1.642999999999998 13.227000000000002 C 1.737999999999998 13.083000000000002 1.826999999999998 12.930000000000001 1.929999999999998 12.755000000000003 L 2.046999999999998 12.557000000000002 C 2.1979999999999977 12.302000000000001 2.372999999999998 12.017000000000003 2.592999999999998 11.709000000000001 C 3.120999999999998 10.97 3.7939999999999983 10.784 4.338999999999999 10.813 C 4.464999999999999 10.82 4.581999999999999 10.838000000000001 4.6869999999999985 10.861 C 4.748999999999999 10.689 4.828999999999999 10.481 4.924999999999999 10.253 C 5.185999999999999 9.634 5.582999999999999 8.834 6.111999999999999 8.184000000000001 C 8.288 5.514000000000001 12.291999999999998 1.9780000000000006 15.229 0.08000000000000185 C 15.41467579439053 -0.03984381849988877 15.657003670118135 -0.023580202679244017 15.825 0.12000000000000172 z" stroke-linecap="round" />
</g>
<g transform="matrix(4.19 0 0 5.31 1229.92 1232.26)" style="" id="1884a878-5231-45ab-a6f1-065e08c7c86d"  >
		<text xml:space="preserve" font-family="Lato" font-size="40" font-style="normal" font-weight="400" style="stroke: none; stroke-width: 1; stroke-dasharray: none; stroke-linecap: butt; stroke-dashoffset: 0; stroke-linejoin: miter; stroke-miterlimit: 4; fill: rgb(227,150,46); fill-rule: nonzero; opacity: 1; white-space: pre;" ><tspan x="-154.16" y="12.57" >P O S S E S S I O N</tspan></text>
</g>
<g transform="matrix(4.54 0 0 5.8 1128.89 916.59)" style="" id="6e292be4-acd9-48f8-af79-24a48205e4a2"  >
		<text xml:space="preserve" font-family="Alegreya" font-size="80" font-style="normal" font-weight="700" style="stroke: none; stroke-width: 1; stroke-dasharray: none; stroke-linecap: butt; stroke-dashoffset: 0; stroke-linejoin: miter; stroke-miterlimit: 4; fill: rgb(255,255,255); fill-rule: nonzero; opacity: 1; white-space: pre;" ><tspan x="-73.32" y="25.13" >ART</tspan></text>
</g>
<g transform="matrix(NaN NaN NaN NaN 0 0)"  >
<g style=""   >
</g>
</g>
</svg>